Plot.

After his wife is assaulted, a husband enlists the services of a vigilante group to help him settle the score. 


General.

Complete name                    :  Seeking.Justice.[2011].ENG.[BRRip].Xvid.-.{RedDragon} .avi
Format                           : MPEG-4
Format profile                   : Base Media / Version 2
Codec ID                         : mp42
File size                        : 799 MiB
Duration                         : 1h 44mn
Overall bit rate                 : 1 065 Kbps
IMDb LINK                       : www.imdb.com/title/tt1214962/
IMDb Rating                     : 6.1


Video.

ID                               : 1
Format                           : AVC
Format/Info                      : Advanced Video Codec
Format profile                   : Main@L2.1
Format settings, CABAC           : Yes
Format settings, ReFrames        : 4 frames
Codec ID                         : avc1
Codec ID/Info                    : Advanced Video Coding
Duration                         : 1h 44mn
Bit rate mode                    : Variable
Bit rate                         : 904 Kbps
Width                            : 584 pixels
Height                           : 320 pixels
Display aspect ratio             : 16:9
Frame rate mode                  : Variable
Frame rate                       : 23.976 fps
Minimum frame rate               : 11.987 fps
Maximum frame rate               : 23.981 fps
Color space                      : YUV
Chroma subsampling               : 4:2:0
Bit depth                        : 8 bits
Scan type                        : Progressive
Bits/(Pixel*Frame)               : 0.202
Stream size                      : 674 MiB (84%)
Writing library                  : x264 core 112


Audio.

ID                               : 2
Format                           : AAC
Format/Info                      : Advanced Audio Codec
Format version                   : Version 4
Format profile                   : LC
Format settings, SBR             : No
Codec ID                         : 40
Duration                         : 1h 44mn
Bit rate mode                    : Variable
Bit rate                         : 160 Kbps
Maximum bit rate                 : 329 Kbps
Channel(s)                       : 2 channels
Channel positions                : Front: L R
Sampling rate                    : 48.0 KHz
Stream size                      : 120 MiB (15%)
Encoded date                     : UTC 2012-01-31 08:05:10
Tagged date                      : UTC 2012-01-31 08:42:48
